<svg width="108" height="46" viewBox="0 0 108 46" fill="none" xmlns="http://www.w3.org/2000/svg">
<g clip-path="url(#clip0_772_980)">
<path fill-rule="evenodd" clip-rule="evenodd" d="M98.3934 15.9701C96.4336 15.4628 94.1079 14.943 92.1501 14.4226C91.7586 14.3186 87.2477 13.2056 87.2477 10.6062C87.2477 7.66243 90.9263 7.20845 93.4155 7.20845C96.4833 7.20845 100.412 8.36586 101.563 8.84368C102.714 9.32149 103.165 8.93117 103.742 8.25221L107.341 4.02082C107.561 3.76173 107.557 3.18382 106.945 2.91838C106.945 2.91838 100.35 0.0517961 93.7027 0.0517961C90.2847 0.0517961 87.4395 0.282177 84.6409 1.44341C81.8718 2.59372 77.9656 5.40692 77.9656 11.2482C77.9656 19.1019 83.9575 20.9963 86.8676 21.8541C89.1014 22.5135 95.473 23.6056 97.2489 24.881C98.5383 25.8069 98.9291 27.2716 98.6415 28.6674C98.3036 30.3058 96.3999 31.729 91.8445 31.729C88.2034 31.729 85.851 30.8335 82.3002 29.1091C81.3806 28.6624 81.2597 28.6568 80.7086 29.2941L76.9699 33.6177C76.4041 34.2719 75.9961 34.7867 76.9317 35.3226C78.7143 36.3437 86.3184 39.4253 92.8702 39.4253C100.228 39.4253 108 36.6011 108 27.2634C108 22.7588 106.285 18.0129 98.3934 15.9701ZM22.1743 29.2212C20.7401 31.1456 18.7206 32.1084 16.1169 32.1084C14.3892 32.1084 13.0207 31.6137 12.0115 30.624C11.0036 29.6336 10.498 28.3035 10.498 26.6309C10.498 24.386 11.2272 22.8026 12.6861 21.8784C14.1432 20.9555 18.7811 20.6118 18.7811 20.6118C19.6664 20.5456 21.1182 20.4921 22.0053 20.4921H22.7138C23.6016 20.4921 24.3271 20.6971 24.3271 21.4493C24.3271 24.383 23.6086 27.2965 22.1743 29.2214M17.4972 0C9.76438 0 4.58902 2.18624 3.45416 2.65992C2.73142 2.96159 2.77332 3.53516 2.99332 3.79404L6.59188 8.02564C7.38708 8.9603 7.84576 8.93742 8.58794 8.68352C8.60846 8.67653 12.2323 7.16089 17.4972 7.16089C19.7398 7.16089 21.4312 7.5742 22.5948 8.36554C24.169 9.43631 24.1975 11.279 24.31 12.3881C24.3853 13.1299 23.6016 13.5297 22.7138 13.5297H17.4972C11.5302 13.5297 7.12119 14.5586 4.27334 16.6147C1.42484 18.672 -7.62939e-06 21.8566 -7.62939e-06 26.168C-7.62939e-06 30.1518 1.19415 33.253 3.58354 35.4749C5.97293 37.6968 9.39286 38.8087 13.5943 38.8087C17.8212 38.8087 21.3427 37.3623 24.324 33.6878C25.082 32.7533 25.5889 33.5331 25.5889 33.5331L28.9387 37.3951C28.9387 37.3951 28.9622 37.4239 29.0074 37.4669C29.1413 37.5949 29.4701 37.8526 29.9493 37.8526H33.2033C33.7714 37.8526 34.112 37.5543 34.1183 37.1283V16.7637C34.1183 10.4716 32.8802 6.10495 30.3992 3.66131C27.9218 1.22129 23.6203 0 17.4972 0ZM78.4829 1.57072C78.9877 0.986244 78.7635 0.512982 77.9851 0.512982H61.5876C61.0029 0.512982 60.3095 0.930105 60.0443 1.44097L58.7485 3.97516L63.9248 18.4059L78.4831 1.57062L78.4829 1.57072ZM74.6115 45.0068L52.0967 1.75026C51.7432 1.06908 50.8192 0.512877 50.0379 0.512877H33.8716C33.0938 0.512877 32.8676 0.986138 33.3737 1.57062L48.9793 19.92L40.3675 36.6428C40.0158 37.3251 40.3675 37.8846 41.1461 37.8846L45.7263 37.8842C46.3638 37.8842 46.7355 37.428 46.7355 37.428L55.3785 27.4442L70.3055 45.0082C70.3112 45.015 71.1242 46 72.0407 46H74.0111C74.2739 46 75.1327 46.0078 74.6118 45.0071L74.6115 45.0068Z" fill="#ABABAB"/>
</g>
<defs>
<clipPath id="clip0_772_980">
<rect width="108" height="46" fill="white"/>
</clipPath>
</defs>
</svg>
